# xmcd
#
# Track frame offsets:
#	150
#	10513
#	21431
#	31277
#	41159
#	51422
#	61652
#	71826
#	81474
#	93076
#	103319
#	113328
#	123444
#	135942
#	146205
#	156042
#	165033
#	175924
#	185479
#	196070
#	208820
#	220019
#	232340
#	245642
#	256898
#
# Disc length: 3555 seconds
#
# Revision: 1
# Processed by: cddbd v1.5.2PL0 Copyright (c) Steve Scherf et al.
# Submitted via: audiograbber 1.83.01
#
DISCID=5d0de119
DTITLE=Various Artist - Rockabilly Cowboys CD2
DYEAR=2012
DGENRE=Country
TTITLE0=Marty Robbins - Mean Mama Blues
TTITLE1=Ernie Howlin and The Blue Shadow Boys - Tally Ho
TTITLE2=Marvin Rainwater - Baby Don´t Wo
TTITLE3=Brenda Lee - Jambalaya
TTITLE4=George Thumper Jones - Rock It
TTITLE5=George and Earl - Done Gone
TTITLE6=Ray Parks - You´re Gonna Have To Ball, That´s All
TTITLE7=Johnny Horton - I´m Coming Home
TTITLE8=Jimmy Lloyd - Where The Rio Rosa Flows
TTITLE9=Johnny Cash - Get Rhythm
TTITLE10=Don Gibson - I´m Movin´ On
TTITLE11=Dave Brockman - Feel Sorry For Me
TTITLE12=Jerry Reed - I´m Stuck
TTITLE13=Tennessee Ernie Ford and Ella Mae Morse - False Hearted Girl
TTITLE14=Jimmy and Johnny - I Can´t Find The Doorknob
TTITLE15=Jimmy Newman - Bop-A-Hula
TTITLE16=Webb Pierce - Teenage Boogie
TTITLE17=Mac Curtis - Granddaddy´s  Rockin´
TTITLE18=Sid King and The Five Strings - Sag, Drag And Fall
TTITLE19=George Thumper Jones - White Lightnin´
TTITLE20=Jack Guthrie - Oakie Boogie
TTITLE21=Curtis Gordon - Rompin´ And Stompin´
TTITLE22=Louvin Brothers - Freight Train Boogie
TTITLE23=Joyce Poynter - Chili Dippin´ Baby
TTITLE24=Sonny James - Uh Uh Mm
EXTD=
EXTT0=
EXTT1=
EXTT2=
EXTT3=
EXTT4=
EXTT5=
EXTT6=
EXTT7=
EXTT8=
EXTT9=
EXTT10=
EXTT11=
EXTT12=
EXTT13=
EXTT14=
EXTT15=
EXTT16=
EXTT17=
EXTT18=
EXTT19=
EXTT20=
EXTT21=
EXTT22=
EXTT23=
EXTT24=
PLAYORDER=
